<svg width="175" height="25" viewBox="0 0 175 25" fill="none" xmlns="http://www.w3.org/2000/svg">
<path d="M36 11.7749V1.22506H38.9302V9.45396L38.1479 8.8491L44.1932 1.22506H47.3083L38.6599 11.7749H36ZM41.0923 6.73913L43.2544 4.96675L47.4505 11.7749H44.1078L41.0923 6.73913Z" fill="#262626"/>
<path d="M50.4535 9.74936V7.40026H57.8074V9.74936H50.4535ZM56.1289 1.22506L60.9794 11.7749H57.8358L53.7677 2.46292H54.6212L50.5388 11.7749H47.3953L52.2457 1.22506H56.1289Z" fill="#262626"/>
<path d="M73.1996 7.35806C73.0953 8.28644 72.7728 9.1023 72.2323 9.80563C71.6918 10.4996 70.9806 11.0388 70.0987 11.4233C69.2263 11.8078 68.2211 12 67.0831 12C65.8409 12 64.7551 11.7702 63.8258 11.3107C62.8965 10.8512 62.171 10.2089 61.6495 9.38363C61.1374 8.5584 60.8814 7.59719 60.8814 6.5C60.8814 5.40281 61.1374 4.4416 61.6495 3.61637C62.171 2.79113 62.8965 2.14876 63.8258 1.68926C64.7551 1.22975 65.8409 1 67.0831 1C68.2211 1 69.2263 1.19224 70.0987 1.57673C70.9806 1.96121 71.6918 2.50512 72.2323 3.20844C72.7728 3.90239 73.0953 4.71356 73.1996 5.64194H70.2409C70.1461 5.19182 69.9612 4.81202 69.6862 4.50256C69.4112 4.18372 69.0508 3.9399 68.6051 3.7711C68.1689 3.6023 67.6616 3.5179 67.0831 3.5179C66.4194 3.5179 65.8456 3.63981 65.362 3.88363C64.8784 4.11807 64.5086 4.46036 64.2525 4.91049C63.9965 5.35124 63.8685 5.88107 63.8685 6.5C63.8685 7.11893 63.9965 7.65345 64.2525 8.10358C64.5086 8.54433 64.8784 8.88661 65.362 9.13043C65.8456 9.36488 66.4194 9.4821 67.0831 9.4821C67.6616 9.4821 68.1689 9.40239 68.6051 9.24297C69.0508 9.08355 69.4112 8.84442 69.6862 8.52558C69.9612 8.20673 70.1461 7.81756 70.2409 7.35806H73.1996Z" fill="#262626"/>
<path d="M74.6304 1.22506H77.5748V11.7749H74.6304V1.22506ZM83.0227 1.22506H85.9814V11.7749H83.0227V1.22506ZM76.2804 5.12148H84.246V7.70972H76.2804V5.12148Z" fill="#262626"/>
<path d="M87.9795 11.7749V1.22506H90.9097V9.45396L90.1274 8.8491L96.1727 1.22506H99.2878L90.6395 11.7749H87.9795ZM93.0718 6.73913L95.2339 4.96675L99.43 11.7749H96.0873L93.0718 6.73913Z" fill="#262626"/>
<path d="M105.508 12C104.247 12 103.138 11.7702 102.18 11.3107C101.231 10.8512 100.492 10.2089 99.9608 9.38363C99.4392 8.5584 99.1784 7.59719 99.1784 6.5C99.1784 5.40281 99.4392 4.4416 99.9608 3.61637C100.492 2.79113 101.231 2.14876 102.18 1.68926C103.138 1.22975 104.247 1 105.508 1C106.779 1 107.888 1.22975 108.837 1.68926C109.785 2.14876 110.525 2.79113 111.056 3.61637C111.587 4.4416 111.852 5.40281 111.852 6.5C111.852 7.59719 111.587 8.5584 111.056 9.38363C110.525 10.2089 109.785 10.8512 108.837 11.3107C107.888 11.7702 106.779 12 105.508 12ZM105.508 9.3977C106.2 9.3977 106.798 9.28048 107.3 9.04604C107.803 8.81159 108.187 8.47869 108.453 8.04731C108.728 7.61594 108.865 7.10017 108.865 6.5C108.865 5.89983 108.728 5.38406 108.453 4.95269C108.187 4.52131 107.803 4.18841 107.3 3.95396C106.798 3.71952 106.2 3.6023 105.508 3.6023C104.825 3.6023 104.233 3.71952 103.73 3.95396C103.228 4.18841 102.839 4.52131 102.564 4.95269C102.289 5.38406 102.151 5.89983 102.151 6.5C102.151 7.10017 102.289 7.61594 102.564 8.04731C102.839 8.47869 103.228 8.81159 103.73 9.04604C104.233 9.28048 104.825 9.3977 105.508 9.3977Z" fill="#262626"/>
<path d="M119.035 10.4668H117.783L121.894 1.22506H125.009L120.045 11.7749H116.702L111.738 1.22506H114.895L119.035 10.4668Z" fill="#262626"/>
<path d="M135.13 5.44501V7.55499H127.321V5.44501H135.13ZM129.327 6.5L128.63 10.734L127.435 9.41177H135.6V11.7749H125.685L126.496 6.5L125.685 1.22506H135.529V3.58824H127.435L128.63 2.26598L129.327 6.5Z" fill="#262626"/>
<path d="M147.192 9.73529L146.281 9.91816V1.22506H149.14V11.7749H145.428L139.269 3.09591L140.165 2.91304V11.7749H137.306V1.22506H141.118L147.192 9.73529Z" fill="#262626"/>
<path d="M151.127 11.7749V1.22506H154.057V9.45396L153.275 8.8491L159.32 1.22506H162.436L153.787 11.7749H151.127ZM156.22 6.73913L158.382 4.96675L162.578 11.7749H159.235L156.22 6.73913Z" fill="#262626"/>
<path d="M168.656 12C167.395 12 166.285 11.7702 165.328 11.3107C164.379 10.8512 163.64 10.2089 163.109 9.38363C162.587 8.5584 162.326 7.59719 162.326 6.5C162.326 5.40281 162.587 4.4416 163.109 3.61637C163.64 2.79113 164.379 2.14876 165.328 1.68926C166.285 1.22975 167.395 1 168.656 1C169.927 1 171.036 1.22975 171.984 1.68926C172.933 2.14876 173.672 2.79113 174.203 3.61637C174.734 4.4416 175 5.40281 175 6.5C175 7.59719 174.734 8.5584 174.203 9.38363C173.672 10.2089 172.933 10.8512 171.984 11.3107C171.036 11.7702 169.927 12 168.656 12ZM168.656 9.3977C169.348 9.3977 169.946 9.28048 170.448 9.04604C170.951 8.81159 171.335 8.47869 171.6 8.04731C171.875 7.61594 172.013 7.10017 172.013 6.5C172.013 5.89983 171.875 5.38406 171.6 4.95269C171.335 4.52131 170.951 4.18841 170.448 3.95396C169.946 3.71952 169.348 3.6023 168.656 3.6023C167.973 3.6023 167.381 3.71952 166.878 3.95396C166.375 4.18841 165.987 4.52131 165.712 4.95269C165.437 5.38406 165.299 5.89983 165.299 6.5C165.299 7.10017 165.437 7.61594 165.712 8.04731C165.987 8.47869 166.375 8.81159 166.878 9.04604C167.381 9.28048 167.973 9.3977 168.656 9.3977Z" fill="#262626"/>
<path d="M39.8226 15.1637C40.7289 15.1637 41.5227 15.324 42.2041 15.6445C42.8923 15.9582 43.4238 16.4049 43.7986 16.9847C44.1801 17.5575 44.3709 18.2293 44.3709 19C44.3709 19.7707 44.1801 20.4459 43.7986 21.0256C43.4238 21.5985 42.8923 22.0452 42.2041 22.3657C41.5227 22.6795 40.7289 22.8363 39.8226 22.8363H36V15.1637H39.8226ZM38.1055 21.9463L37.0936 20.954H39.9862C40.4427 20.954 40.8379 20.8755 41.1718 20.7187C41.5125 20.555 41.7748 20.3265 41.9588 20.0332C42.1428 19.74 42.2348 19.3956 42.2348 19C42.2348 18.5976 42.1428 18.2532 41.9588 17.9668C41.7748 17.6735 41.5125 17.4484 41.1718 17.2916C40.8379 17.1279 40.4427 17.046 39.9862 17.046H37.0936L38.1055 16.0537V21.9463Z" fill="#262626"/>
<path d="M51.9241 18.2327V19.7673H46.3128V18.2327H51.9241ZM47.754 19L47.2531 22.0793L46.3946 21.1176H52.2614V22.8363H45.1374L45.72 19L45.1374 15.1637H52.2103V16.8824H46.3946L47.2531 15.9207L47.754 19Z" fill="#262626"/>
<path d="M53.1398 20.3197H55.2964C55.3305 20.5311 55.4293 20.7153 55.5928 20.8721C55.7564 21.029 55.9744 21.1517 56.247 21.2404C56.5263 21.3222 56.8534 21.3632 57.2282 21.3632C57.746 21.3632 58.1549 21.2984 58.4547 21.1688C58.7545 21.0324 58.9044 20.8346 58.9044 20.5754C58.9044 20.3777 58.8192 20.2242 58.6489 20.1151C58.4785 20.006 58.1515 19.9275 57.6677 19.8798L56.2368 19.7468C55.1806 19.6513 54.414 19.4126 53.937 19.0307C53.4601 18.6419 53.2216 18.1202 53.2216 17.4655C53.2216 16.9335 53.3749 16.4834 53.6815 16.1151C53.995 15.7468 54.4311 15.4706 54.9898 15.2864C55.5554 15.0955 56.2129 15 56.9624 15C57.6983 15 58.3525 15.1057 58.9249 15.3171C59.4972 15.5217 59.9503 15.815 60.2842 16.1969C60.6249 16.5789 60.8089 17.0222 60.8362 17.5269H58.6898C58.6625 17.3427 58.5739 17.1858 58.424 17.0563C58.2809 16.9199 58.0833 16.8176 57.8312 16.7494C57.5791 16.6743 57.2759 16.6368 56.9216 16.6368C56.4446 16.6368 56.0664 16.7016 55.787 16.8312C55.5077 16.954 55.368 17.1381 55.368 17.3836C55.368 17.561 55.4497 17.7042 55.6133 17.8133C55.7836 17.9224 56.0868 17.9974 56.5229 18.0384L58.0459 18.1918C58.7749 18.26 59.3575 18.3794 59.7936 18.5499C60.2297 18.7136 60.5466 18.942 60.7442 19.2353C60.9418 19.5286 61.0406 19.8934 61.0406 20.3299C61.0406 20.8687 60.8805 21.3393 60.5602 21.7417C60.2399 22.1373 59.7902 22.4476 59.211 22.6726C58.6319 22.8909 57.9573 23 57.1873 23C56.3969 23 55.6985 22.8909 55.092 22.6726C54.4924 22.4476 54.0222 22.1338 53.6815 21.7315C53.3408 21.3223 53.1603 20.8517 53.1398 20.3197Z" fill="#262626"/>
<path d="M62.1012 15.1637H64.217V22.8363H62.1012V15.1637Z" fill="#262626"/>
<path d="M73.4943 19.5115C73.4738 19.9753 73.3784 20.4186 73.2081 20.8414C73.0445 21.2575 72.8027 21.6292 72.4824 21.9565C72.169 22.2839 71.7738 22.5396 71.2968 22.7238C70.8266 22.9079 70.2781 23 69.6512 23C69.0516 23 68.4894 22.9147 67.9648 22.7442C67.4401 22.5669 66.9767 22.3078 66.5747 21.9668C66.1795 21.6257 65.8695 21.2063 65.6446 20.7084C65.4266 20.2106 65.3175 19.6411 65.3175 19C65.3175 18.3589 65.43 17.7894 65.6548 17.2916C65.8797 16.7937 66.1931 16.3743 66.5952 16.0332C67.004 15.6922 67.4742 15.4365 68.0056 15.266C68.5439 15.0887 69.1299 15 69.7636 15C70.6086 15 71.3377 15.1296 71.9509 15.3887C72.5642 15.6479 73.0582 16.0026 73.4329 16.4527C73.8077 16.9028 74.0496 17.4246 74.1586 18.0179H72.0225C71.9543 17.7587 71.8146 17.5371 71.6034 17.3529C71.399 17.162 71.1401 17.0188 70.8266 16.9233C70.52 16.821 70.1691 16.7698 69.7739 16.7698C69.2969 16.7698 68.8846 16.8551 68.5371 17.0256C68.1896 17.1893 67.9205 17.4382 67.7297 17.7724C67.5389 18.0997 67.4435 18.509 67.4435 19C67.4435 19.4979 67.5457 19.9173 67.7501 20.2583C67.9545 20.5993 68.2441 20.8551 68.6189 21.0256C69.0005 21.1961 69.4468 21.2813 69.9578 21.2813C70.4553 21.2813 70.8948 21.2131 71.2763 21.0767C71.6579 20.9335 71.9611 20.7255 72.186 20.4527C72.4177 20.1799 72.5505 19.8525 72.5846 19.4706L73.4943 19.5115ZM70.1623 20.3606V18.867H74.2302V22.8363H72.7277L72.4313 19.798L72.8299 20.3606H70.1623Z" fill="#262626"/>
<path d="M82.5997 21.3529L81.9456 21.4859V15.1637H84V22.8363H81.3323L76.9067 16.5243L77.5506 16.3913V22.8363H75.4962V15.1637H78.2354L82.5997 21.3529Z" fill="#262626"/>
<path fill-rule="evenodd" clip-rule="evenodd" d="M24.0973 17.1728C24.6795 15.7292 25 14.152 25 12.5C25 10.2753 24.4188 8.1863 23.4 6.37661L19.9606 10.5684L24.0973 17.1728ZM20.649 21.9789L16.3413 14.9796L8.62266 24.387C9.84331 24.7849 11.1465 25 12.5 25C15.6133 25 18.4608 23.8618 20.649 21.9789ZM3 20.6244C1.12967 18.4394 0 15.6016 0 12.5C0 9.39836 1.12967 6.56056 3 4.37561V20.6244ZM8.65508 0.602484V17.2736L20.3449 2.76768C18.2 1.03652 15.471 0 12.5 0C11.1585 0 9.86638 0.211319 8.65508 0.602484Z" fill="#262626"/>
</svg>
