<svg fill="none" height="512" viewBox="0 0 20 20" width="512" xmlns="http://www.w3.org/2000/svg" xmlns:xlink="http://www.w3.org/1999/xlink"><clipPath id="clip0_6_451"><path d="m0 0h20v20h-20z"/></clipPath><g clip-path="url(#clip0_6_451)"><path clip-rule="evenodd" d="m10 20c5.514 0 10-4.486 10-10s-4.486-10.00000048-10-10-10.00000048 4.486-10 10 4.486 10 10 10zm1-6c0 .5523-.4477 1-1 1-.55229 0-1-.4477-1-1v-4c0-.55228.44771-1 1-1 .5523 0 1 .44772 1 1zm-1-9c-.55229 0-1 .44771-1 1s.44771 1 1 1c.5523 0 1-.44771 1-1s-.4477-1-1-1z" fill="rgb(0,0,0)" fill-rule="evenodd"/></g></svg>